<svg width="30" height="31" viewBox="0 0 30 31" fill="none" xmlns="http://www.w3.org/2000/svg">
<path d="M17.2876 24.0784C17.1008 24.0791 16.9163 24.0374 16.7476 23.9564C16.5789 23.8755 16.4302 23.7573 16.3126 23.6107L10.2751 16.0253C10.0912 15.7991 9.99072 15.5154 9.99072 15.2225C9.99072 14.9297 10.0912 14.646 10.2751 14.4198L16.5251 6.83442C16.7373 6.57624 17.0421 6.41389 17.3727 6.38307C17.7032 6.35224 18.0323 6.45548 18.2876 6.67007C18.5429 6.88466 18.7034 7.19302 18.7339 7.52731C18.7643 7.8616 18.6623 8.19445 18.4501 8.45262L12.8626 15.2289L18.2626 22.0051C18.4154 22.1907 18.5125 22.4166 18.5424 22.6563C18.5722 22.8959 18.5336 23.1392 18.431 23.3573C18.3284 23.5754 18.1662 23.7592 17.9636 23.887C17.761 24.0148 17.5264 24.0812 17.2876 24.0784Z" fill="#535353"/>
</svg>
