<svg width="49" height="48" viewBox="0 0 49 48" fill="none" xmlns="http://www.w3.org/2000/svg">
<path d="M35.5 11.2528H31V8.97724C31 7.97136 30.6049 7.00668 29.9016 6.29542C29.1984 5.58415 28.2446 5.18457 27.25 5.18457H22.75C21.7554 5.18457 20.8016 5.58415 20.0983 6.29542C19.3951 7.00668 19 7.97136 19 8.97724V11.2528H14.5C13.3065 11.2528 12.1619 11.7323 11.318 12.5859C10.4741 13.4394 10 14.597 10 15.804V27.9406C10 29.1476 10.4741 30.3052 11.318 31.1588C12.1619 32.0123 13.3065 32.4918 14.5 32.4918H35.5C36.6935 32.4918 37.8381 32.0123 38.682 31.1588C39.5259 30.3052 40 29.1476 40 27.9406V15.804C40 14.597 39.5259 13.4394 38.682 12.5859C37.8381 11.7323 36.6935 11.2528 35.5 11.2528ZM22 8.97724C22 8.77606 22.079 8.58313 22.2197 8.44087C22.3603 8.29862 22.5511 8.2187 22.75 8.2187H27.25C27.4489 8.2187 27.6397 8.29862 27.7803 8.44087C27.921 8.58313 28 8.77606 28 8.97724V11.2528H22V8.97724ZM37 27.9406C37 28.3429 36.842 28.7288 36.5607 29.0133C36.2794 29.2978 35.8978 29.4576 35.5 29.4576H14.5C14.1022 29.4576 13.7206 29.2978 13.4393 29.0133C13.158 28.7288 13 28.3429 13 27.9406V15.804C13 15.4017 13.158 15.0158 13.4393 14.7313C13.7206 14.4468 14.1022 14.287 14.5 14.287H35.5C35.8978 14.287 36.2794 14.4468 36.5607 14.7313C36.842 15.0158 37 15.4017 37 15.804V27.9406Z" fill="#3E3E3E"/>
<path d="M25 16.5626C23.9617 16.5626 22.9466 16.874 22.0833 17.4574C21.2199 18.0409 20.547 18.8701 20.1496 19.8403C19.7523 20.8106 19.6483 21.8782 19.8509 22.9082C20.0535 23.9382 20.5535 24.8843 21.2877 25.6268C22.0219 26.3694 22.9574 26.8751 23.9758 27.08C24.9942 27.2849 26.0498 27.1797 27.0091 26.7779C27.9684 26.376 28.7883 25.6954 29.3652 24.8222C29.9421 23.949 30.25 22.9225 30.25 21.8723C30.25 20.4641 29.6969 19.1135 28.7123 18.1177C27.7277 17.122 26.3924 16.5626 25 16.5626ZM25 24.1479C24.555 24.1479 24.12 24.0144 23.75 23.7644C23.38 23.5143 23.0916 23.1589 22.9213 22.7431C22.751 22.3273 22.7064 21.8698 22.7932 21.4283C22.8801 20.9869 23.0943 20.5815 23.409 20.2632C23.7237 19.945 24.1246 19.7282 24.561 19.6404C24.9975 19.5526 25.4499 19.5977 25.861 19.7699C26.2722 19.9421 26.6236 20.2338 26.8708 20.608C27.118 20.9823 27.25 21.4222 27.25 21.8723C27.25 22.4758 27.013 23.0546 26.591 23.4814C26.169 23.9081 25.5967 24.1479 25 24.1479Z" fill="#3E3E3E"/>
<path d="M8.00914 41.29H9.34914V40.19H8.00914V36.65H6.68914V45.86H8.00914V41.29ZM4.18914 38.7V37.36H2.85914V38.7C2.85914 39.1267 2.81247 39.5533 2.71914 39.98C2.63247 40.4 2.49581 40.7967 2.30914 41.17C2.12914 41.5433 1.89581 41.88 1.60914 42.18C1.32914 42.48 0.995807 42.72 0.609141 42.9L1.39914 43.97C1.91914 43.7167 2.35247 43.36 2.69914 42.9C3.05247 42.4333 3.32914 41.9067 3.52914 41.32C3.72247 41.8867 3.98247 42.38 4.30914 42.8C4.63581 43.22 5.03914 43.5533 5.51914 43.8L6.31914 42.76C5.95247 42.58 5.63247 42.3467 5.35914 42.06C5.09247 41.7667 4.87247 41.44 4.69914 41.08C4.52581 40.72 4.39581 40.3367 4.30914 39.93C4.22914 39.5233 4.18914 39.1133 4.18914 38.7ZM16.3184 43.31H17.6484V36.65H16.3184V43.31ZM15.0684 42.17L15.7384 41.16C15.3717 41.04 15.0517 40.8833 14.7784 40.69C14.505 40.49 14.2784 40.27 14.0984 40.03C13.925 39.79 13.795 39.5367 13.7084 39.27C13.6217 38.9967 13.5784 38.7267 13.5784 38.46V38.35H15.3984V37.31H10.3884V38.35H12.2384V38.46C12.2384 38.7467 12.195 39.0333 12.1084 39.32C12.0217 39.6067 11.8884 39.8767 11.7084 40.13C11.5284 40.3833 11.2984 40.6133 11.0184 40.82C10.745 41.02 10.4184 41.18 10.0384 41.3L10.7084 42.33C11.2484 42.1567 11.7017 41.9033 12.0684 41.57C12.435 41.23 12.7217 40.83 12.9284 40.37C13.1417 40.79 13.4217 41.1567 13.7684 41.47C14.115 41.7767 14.5484 42.01 15.0684 42.17ZM17.8784 45.7V44.65H12.8384V42.71H11.5184V45.7H17.8784ZM28.7132 39.67H29.9332V38.59H28.7132V36.65H27.3932V41.83H28.7132V39.67ZM26.8232 40.99L26.6732 39.93C26.0465 40.05 25.4432 40.1367 24.8632 40.19C24.2899 40.2367 23.7199 40.2667 23.1532 40.28V37.08H21.8332V41.38H22.6132C23.2799 41.38 23.9565 41.3533 24.6432 41.3C25.3299 41.2467 26.0565 41.1433 26.8232 40.99ZM28.7132 42.26H22.7132V45.75H28.7132V42.26ZM27.4232 44.72H24.0132V43.29H27.4232V44.72ZM38.3324 45.85V36.64H37.0024V45.85H38.3324ZM35.5924 37.6H31.1724V38.65H34.2424C34.1958 39.1567 34.0924 39.63 33.9324 40.07C33.7791 40.51 33.5591 40.92 33.2724 41.3C32.9858 41.68 32.6291 42.0333 32.2024 42.36C31.7758 42.68 31.2691 42.98 30.6824 43.26L31.3724 44.3C32.1924 43.9067 32.8724 43.47 33.4124 42.99C33.9524 42.5033 34.3824 41.98 34.7024 41.42C35.0291 40.8533 35.2591 40.25 35.3924 39.61C35.5258 38.97 35.5924 38.3 35.5924 37.6ZM47.5316 45.85V36.64H46.2016V45.85H47.5316ZM44.7916 37.6H40.3716V38.65H43.4416C43.395 39.1567 43.2916 39.63 43.1316 40.07C42.9783 40.51 42.7583 40.92 42.4716 41.3C42.185 41.68 41.8283 42.0333 41.4016 42.36C40.975 42.68 40.4683 42.98 39.8816 43.26L40.5716 44.3C41.3916 43.9067 42.0716 43.47 42.6116 42.99C43.1516 42.5033 43.5816 41.98 43.9016 41.42C44.2283 40.8533 44.4583 40.25 44.5916 39.61C44.725 38.97 44.7916 38.3 44.7916 37.6Z" fill="#3E3E3E"/>
</svg>
