<svg width="17" height="17" viewBox="0 0 17 17" fill="none" xmlns="http://www.w3.org/2000/svg">
<path d="M15.4545 12.3636H4.63636V1.54545H15.4545M15.4545 0H4.63636C4.22648 0 3.83339 0.162824 3.54356 0.452653C3.25373 0.742482 3.09091 1.13557 3.09091 1.54545V12.3636C3.09091 12.7735 3.25373 13.1666 3.54356 13.4564C3.83339 13.7463 4.22648 13.9091 4.63636 13.9091H15.4545C15.8644 13.9091 16.2575 13.7463 16.5473 13.4564C16.8372 13.1666 17 12.7735 17 12.3636V1.54545C17 1.13557 16.8372 0.742482 16.5473 0.452653C16.2575 0.162824 15.8644 0 15.4545 0ZM1.54545 3.09091H0V15.4545C0 15.8644 0.162824 16.2575 0.452653 16.5473C0.742482 16.8372 1.13557 17 1.54545 17H13.9091V15.4545H1.54545M11.56 7.17864L9.435 9.91409L7.92045 8.09045L5.79545 10.8182H14.2955L11.56 7.17864Z" fill="#565656"/>
</svg>
