<svg width="37" height="48" viewBox="0 0 37 48" fill="none" xmlns="http://www.w3.org/2000/svg">
<path d="M19.0001 32.4917C18.8026 32.4929 18.6069 32.4546 18.4242 32.3791C18.2414 32.3036 18.0752 32.1924 17.9351 32.0518L6.28005 20.249C4.81809 18.755 3.99805 16.7378 3.99805 14.6358C3.99805 12.5338 4.81809 10.5167 6.28005 9.0227C7.75345 7.53675 9.7493 6.7023 11.8301 6.7023C13.9108 6.7023 15.9067 7.53675 17.3801 9.0227L19.0001 10.6611L20.6201 9.0227C22.0934 7.53675 24.0893 6.7023 26.1701 6.7023C28.2508 6.7023 30.2467 7.53675 31.7201 9.0227C33.182 10.5167 34.0021 12.5338 34.0021 14.6358C34.0021 16.7378 33.182 18.755 31.7201 20.249L20.0651 32.0518C19.9249 32.1924 19.7587 32.3036 19.5759 32.3791C19.3932 32.4546 19.1975 32.4929 19.0001 32.4917Z" fill="#3E3E3E"/>
<path d="M8.23156 42.1L8.91156 41.13C8.59823 40.9967 8.33156 40.83 8.11156 40.63C7.89156 40.4233 7.71156 40.2 7.57156 39.96C7.43823 39.7133 7.33823 39.4533 7.27156 39.18C7.21156 38.9067 7.18156 38.63 7.18156 38.35V37.31H5.85156V38.35C5.85156 38.5767 5.83156 38.8067 5.79156 39.04C5.75156 39.2733 5.6849 39.5 5.59156 39.72C5.49823 39.94 5.37823 40.15 5.23156 40.35C5.0849 40.5433 4.9049 40.72 4.69156 40.88C4.4849 40.72 4.30823 40.54 4.16156 40.34C4.0149 40.14 3.89156 39.93 3.79156 39.71C3.69823 39.49 3.62823 39.2667 3.58156 39.04C3.54156 38.8067 3.52156 38.5767 3.52156 38.35V37.31H2.21156V38.35C2.21156 38.6233 2.17823 38.8967 2.11156 39.17C2.05156 39.4367 1.95156 39.6933 1.81156 39.94C1.67156 40.1867 1.49156 40.4133 1.27156 40.62C1.05156 40.82 0.788229 40.99 0.481563 41.13L1.16156 42.1C1.58156 41.92 1.92823 41.6767 2.20156 41.37C2.48156 41.0567 2.70156 40.7 2.86156 40.3C3.02156 40.7267 3.24823 41.11 3.54156 41.45C3.84156 41.79 4.2249 42.0533 4.69156 42.24C5.15823 42.0533 5.53823 41.79 5.83156 41.45C6.13156 41.11 6.36156 40.73 6.52156 40.31C6.68156 40.71 6.89823 41.0633 7.17156 41.37C7.45156 41.6767 7.8049 41.92 8.23156 42.1ZM8.86156 43.66H0.531563V44.73H8.86156V43.66ZM16.9408 41.14H18.2808V40.05H16.9408V36.65H15.6208V45.88H16.9408V41.14ZM11.4008 42.57V38.57H14.3808V37.5H10.0808V43.67H10.8708C11.2708 43.67 11.6508 43.6667 12.0108 43.66C12.3774 43.6467 12.7308 43.63 13.0708 43.61C13.4174 43.59 13.7574 43.56 14.0908 43.52C14.4308 43.48 14.7741 43.43 15.1208 43.37L14.9908 42.28C14.3974 42.38 13.8141 42.4533 13.2408 42.5C12.6674 42.54 12.0541 42.5633 11.4008 42.57ZM19.95 40.15H26.35V39.1H21.26V37.94H26.27V36.89H19.95V40.15ZM27.27 41.84V40.78H18.94V41.84H27.27ZM26.28 42.55H19.9V45.73H26.28V42.55ZM24.99 44.7H21.19V43.58H24.99V44.7ZM35.7992 45.85V36.64H34.4692V45.85H35.7992ZM33.0592 37.6H28.6392V38.65H31.7092C31.6626 39.1567 31.5592 39.63 31.3992 40.07C31.2459 40.51 31.0259 40.92 30.7392 41.3C30.4526 41.68 30.0959 42.0333 29.6692 42.36C29.2426 42.68 28.7359 42.98 28.1492 43.26L28.8392 44.3C29.6592 43.9067 30.3392 43.47 30.8792 42.99C31.4192 42.5033 31.8492 41.98 32.1692 41.42C32.4959 40.8533 32.7259 40.25 32.8592 39.61C32.9926 38.97 33.0592 38.3 33.0592 37.6Z" fill="#3E3E3E"/>
</svg>
