<svg width="36" height="37" viewBox="0 0 36 37" fill="current" xmlns="http://www.w3.org/2000/svg">
<path d="M18.0001 31.8584C17.8026 31.8595 17.607 31.8213 17.4242 31.7458C17.2414 31.6703 17.0752 31.559 16.9351 31.4184L5.28005 19.6157C3.81809 18.1216 2.99805 16.1045 2.99805 14.0025C2.99805 11.9005 3.81809 9.88341 5.28005 8.38937C6.75345 6.90342 8.7493 6.06897 10.8301 6.06897C12.9108 6.06897 14.9067 6.90342 16.3801 8.38937L18.0001 10.0278L19.6201 8.38937C21.0934 6.90342 23.0893 6.06897 25.1701 6.06897C27.2508 6.06897 29.2467 6.90342 30.7201 8.38937C32.182 9.88341 33.0021 11.9005 33.0021 14.0025C33.0021 16.1045 32.182 18.1216 30.7201 19.6157L19.0651 31.4184C18.9249 31.559 18.7587 31.6703 18.5759 31.7458C18.3932 31.8213 18.1975 31.8595 18.0001 31.8584Z" fill="current"/>
</svg>
