<svg width="92" height="26" viewBox="0 0 92 26" fill="current" xmlns="http://www.w3.org/2000/svg">
<path d="M27.4 7.4C27.4 7.05333 27.5267 6.76667 27.78 6.54C28.0333 6.31333 28.3333 6.2 28.68 6.2C28.9867 6.2 29.26 6.29333 29.5 6.48C29.7533 6.66667 29.9067 6.92667 29.96 7.26L31.7 16.92C31.7267 17.0667 31.7867 17.14 31.88 17.14C31.96 17.14 32.02 17.0667 32.06 16.92L34.1 7.32C34.1667 7 34.32 6.73333 34.56 6.52C34.8133 6.30667 35.12 6.2 35.48 6.2C35.8267 6.2 36.1133 6.30667 36.34 6.52C36.5667 6.72 36.72 6.98667 36.8 7.32L38.86 16.92C38.8867 17.0667 38.9467 17.14 39.04 17.14C39.1333 17.14 39.1933 17.0667 39.22 16.92L40.94 7.26C40.9933 6.92667 41.1267 6.66667 41.34 6.48C41.5667 6.29333 41.8333 6.2 42.14 6.2C42.54 6.2 42.8733 6.33333 43.14 6.6C43.42 6.85333 43.56 7.17333 43.56 7.56C43.56 7.89333 43.48 8.36 43.32 8.96L40.7 19.2C40.6067 19.56 40.42 19.8533 40.14 20.08C39.8733 20.32 39.54 20.44 39.14 20.44C38.7267 20.44 38.38 20.3267 38.1 20.1C37.82 19.8733 37.6333 19.5733 37.54 19.2L35.72 12.2C35.68 12.0133 35.6 11.92 35.48 11.92C35.3733 11.92 35.2933 12.0133 35.24 12.2L33.38 19.2C33.2867 19.56 33.1 19.8533 32.82 20.08C32.5533 20.32 32.22 20.44 31.82 20.44C31.4067 20.44 31.06 20.3267 30.78 20.1C30.5 19.8733 30.3133 19.5733 30.22 19.2L27.66 8.9C27.58 8.60667 27.5133 8.34 27.46 8.1C27.42 7.84667 27.4 7.61333 27.4 7.4ZM51.7025 17.04C52.0492 17.04 52.3425 17.16 52.5825 17.4C52.8225 17.64 52.9425 17.9333 52.9425 18.28C52.9425 18.9333 52.5958 19.4533 51.9025 19.84C51.2092 20.24 50.2492 20.44 49.0225 20.44C48.1292 20.44 47.3292 20.24 46.6225 19.84C45.9158 19.44 45.3625 18.8867 44.9625 18.18C44.5625 17.46 44.3625 16.6533 44.3625 15.76C44.3625 14.9733 44.5425 14.2467 44.9025 13.58C45.2758 12.9133 45.8158 12.3867 46.5225 12C47.2292 11.6 48.0625 11.4 49.0225 11.4C49.7692 11.4 50.4492 11.54 51.0625 11.82C51.6758 12.0867 52.1558 12.4533 52.5025 12.92C52.8625 13.3867 53.0425 13.9067 53.0425 14.48C53.0425 15.7333 52.3492 16.36 50.9625 16.36H46.9025C47.0092 16.9867 47.2558 17.4867 47.6425 17.86C48.0425 18.22 48.5025 18.4 49.0225 18.4C49.8625 18.4 50.3958 18.16 50.6225 17.68C50.7025 17.52 50.8425 17.3733 51.0425 17.24C51.2425 17.1067 51.4625 17.04 51.7025 17.04ZM49.8825 14.74C50.1358 14.74 50.3158 14.7067 50.4225 14.64C50.5425 14.5733 50.6025 14.46 50.6025 14.3C50.6025 14.02 50.4692 13.78 50.2025 13.58C49.9492 13.38 49.5825 13.28 49.1025 13.28C48.5692 13.28 48.1158 13.4067 47.7425 13.66C47.3825 13.9133 47.1292 14.2733 46.9825 14.74H49.8825ZM60.0331 11.4C60.7131 11.4 61.3465 11.5933 61.9331 11.98C62.5198 12.3667 62.9865 12.8933 63.3331 13.56C63.6931 14.2267 63.8731 14.96 63.8731 15.76C63.8731 16.6267 63.6798 17.42 63.2931 18.14C62.9198 18.8467 62.3931 19.4067 61.7131 19.82C61.0331 20.2333 60.2665 20.44 59.4131 20.44C58.9998 20.44 58.6131 20.38 58.2531 20.26C57.9065 20.14 57.6265 19.98 57.4131 19.78L57.3331 22.38C57.3198 22.82 57.2331 23.1667 57.0731 23.42C56.9131 23.6733 56.6665 23.8 56.3331 23.8C55.6931 23.8 55.3531 23.3267 55.3131 22.38L54.9531 12.82C54.9265 12.3933 55.0331 12.0533 55.2731 11.8C55.5265 11.5333 55.8598 11.4 56.2731 11.4C56.6331 11.4 56.9265 11.5067 57.1531 11.72C57.3931 11.92 57.5331 12.1933 57.5731 12.54C57.8131 12.2333 58.1465 11.9667 58.5731 11.74C58.9998 11.5133 59.4865 11.4 60.0331 11.4ZM57.4531 17.94C57.6665 18.1 57.9065 18.2267 58.1731 18.32C58.4531 18.4 58.7331 18.44 59.0131 18.44C59.7598 18.44 60.3331 18.2067 60.7331 17.74C61.1465 17.2733 61.3531 16.6133 61.3531 15.76C61.3531 15.0267 61.1731 14.4533 60.8131 14.04C60.4665 13.6267 60.0131 13.42 59.4531 13.42C59.0398 13.42 58.6665 13.5267 58.3331 13.74C57.9998 13.94 57.7398 14.2067 57.5531 14.54L57.4531 17.94ZM65.8758 7.62C65.8624 7.19333 65.9758 6.85333 66.2158 6.6C66.4558 6.33333 66.7824 6.2 67.1958 6.2C67.6091 6.2 67.9358 6.33333 68.1758 6.6C68.4158 6.85333 68.5291 7.19333 68.5158 7.62L68.2558 19.02C68.2424 19.46 68.1558 19.8067 67.9958 20.06C67.8358 20.3133 67.5891 20.44 67.2558 20.44C66.9224 20.44 66.6691 20.3133 66.4958 20.06C66.3358 19.8067 66.2491 19.46 66.2358 19.02L65.8758 7.62ZM75.1748 20.44C74.2948 20.44 73.4948 20.2267 72.7748 19.8C72.0682 19.3867 71.5148 18.8267 71.1148 18.12C70.7148 17.4 70.5148 16.6133 70.5148 15.76C70.5148 14.96 70.7148 14.2333 71.1148 13.58C71.5148 12.9133 72.0682 12.3867 72.7748 12C73.4948 11.6 74.2948 11.4 75.1748 11.4C76.0548 11.4 76.8482 11.6 77.5548 12C78.2748 12.3867 78.8348 12.9133 79.2348 13.58C79.6348 14.2333 79.8348 14.96 79.8348 15.76C79.8348 16.6133 79.6348 17.4 79.2348 18.12C78.8348 18.8267 78.2748 19.3867 77.5548 19.8C76.8482 20.2267 76.0548 20.44 75.1748 20.44ZM73.0348 15.76C73.0348 16.56 73.2415 17.2067 73.6548 17.7C74.0682 18.1933 74.5748 18.44 75.1748 18.44C75.7748 18.44 76.2815 18.1933 76.6948 17.7C77.1082 17.2067 77.3148 16.56 77.3148 15.76C77.3148 15.04 77.1082 14.4667 76.6948 14.04C76.2815 13.6133 75.7748 13.4 75.1748 13.4C74.5748 13.4 74.0682 13.6133 73.6548 14.04C73.2415 14.4667 73.0348 15.04 73.0348 15.76ZM89.0928 11.4C89.5061 11.4 89.8328 11.5333 90.0728 11.8C90.3128 12.0533 90.4261 12.3933 90.4128 12.82L90.2528 18.6C90.1995 20.24 89.7661 21.5133 88.9528 22.42C88.1528 23.34 87.0328 23.8 85.5928 23.8C84.7261 23.8 83.9861 23.6733 83.3728 23.42C82.7728 23.18 82.3195 22.8667 82.0128 22.48C81.7195 22.1067 81.5728 21.7267 81.5728 21.34C81.5728 21.0333 81.6861 20.7667 81.9128 20.54C82.1395 20.3133 82.4061 20.2 82.7128 20.2C83.0728 20.2 83.3728 20.3467 83.6128 20.64C83.6261 20.6533 83.6995 20.76 83.8328 20.96C83.9795 21.16 84.2395 21.34 84.6128 21.5C84.9861 21.6733 85.4195 21.76 85.9128 21.76C86.6595 21.76 87.2395 21.5333 87.6528 21.08C88.0795 20.64 88.2661 20.02 88.2128 19.22L88.1528 18.32C87.9395 18.64 87.5928 18.94 87.1128 19.22C86.6328 19.5 86.0861 19.64 85.4728 19.64C84.7395 19.64 84.0595 19.4667 83.4328 19.12C82.8195 18.7733 82.3328 18.3 81.9728 17.7C81.6128 17.0867 81.4328 16.4133 81.4328 15.68C81.4328 14.8933 81.6195 14.1733 81.9928 13.52C82.3795 12.8667 82.9128 12.3533 83.5928 11.98C84.2728 11.5933 85.0395 11.4 85.8928 11.4C86.3061 11.4 86.6861 11.46 87.0328 11.58C87.3928 11.7 87.6861 11.86 87.9128 12.06C88.0195 11.8467 88.1728 11.6867 88.3728 11.58C88.5728 11.46 88.8128 11.4 89.0928 11.4ZM83.9528 15.68C83.9528 16.2933 84.1395 16.7733 84.5128 17.12C84.8861 17.4533 85.3995 17.62 86.0528 17.62C86.4661 17.62 86.8461 17.5133 87.1928 17.3C87.5528 17.0733 87.8261 16.7867 88.0128 16.44L87.8528 13.9C87.3995 13.5667 86.8795 13.4 86.2928 13.4C85.5461 13.4 84.9661 13.6 84.5528 14C84.1528 14.3867 83.9528 14.9467 83.9528 15.68Z" fill="current"/>
<path d="M17.9 19.39C17.64 18.59 16.89 18 16 18H15V15C15 14.7348 14.8946 14.4804 14.7071 14.2929C14.5196 14.1054 14.2652 14 14 14H8V12H10C10.2652 12 10.5196 11.8946 10.7071 11.7071C10.8946 11.5196 11 11.2652 11 11V9H13C13.5304 9 14.0391 8.78929 14.4142 8.41421C14.7893 8.03914 15 7.53043 15 7V6.59C17.93 7.77 20 10.64 20 14C20 16.08 19.2 17.97 17.9 19.39ZM11 21.93C7.05 21.44 4 18.08 4 14C4 13.38 4.08 12.78 4.21 12.21L9 17V18C9 18.5304 9.21071 19.0391 9.58579 19.4142C9.96086 19.7893 10.4696 20 11 20M12 4C10.6868 4 9.38642 4.25866 8.17317 4.7612C6.95991 5.26375 5.85752 6.00035 4.92893 6.92893C3.05357 8.8043 2 11.3478 2 14C2 16.6522 3.05357 19.1957 4.92893 21.0711C5.85752 21.9997 6.95991 22.7362 8.17317 23.2388C9.38642 23.7413 10.6868 24 12 24C14.6522 24 17.1957 22.9464 19.0711 21.0711C20.9464 19.1957 22 16.6522 22 14C22 12.6868 21.7413 11.3864 21.2388 10.1732C20.7362 8.95991 19.9997 7.85752 19.0711 6.92893C18.1425 6.00035 17.0401 5.26375 15.8268 4.7612C14.6136 4.25866 13.3132 4 12 4Z" fill="current"/>
</svg>
