<svg width="16" height="16" viewBox="0 0 16 16" fill="none" xmlns="http://www.w3.org/2000/svg">
<path d="M12 10.72C11.4933 10.72 11.04 10.92 10.6933 11.2334L5.94 8.46671C5.97333 8.31337 6 8.16004 6 8.00004C6 7.84004 5.97333 7.68671 5.94 7.53337L10.64 4.79337C11 5.12671 11.4733 5.33337 12 5.33337C12.5304 5.33337 13.0391 5.12266 13.4142 4.74759C13.7893 4.37251 14 3.86381 14 3.33337C14 2.80294 13.7893 2.29423 13.4142 1.91916C13.0391 1.54409 12.5304 1.33337 12 1.33337C11.4696 1.33337 10.9609 1.54409 10.5858 1.91916C10.2107 2.29423 10 2.80294 10 3.33337C10 3.49337 10.0267 3.64671 10.06 3.80004L5.36 6.54004C5 6.20671 4.52667 6.00004 4 6.00004C3.46957 6.00004 2.96086 6.21075 2.58579 6.58583C2.21071 6.9609 2 7.46961 2 8.00004C2 8.53047 2.21071 9.03918 2.58579 9.41426C2.96086 9.78933 3.46957 10 4 10C4.52667 10 5 9.79337 5.36 9.46004L10.1067 12.2267C10.0733 12.3667 10.0533 12.5134 10.0533 12.6667C10.0533 13.74 10.9267 14.6067 12 14.6067C13.0733 14.6067 13.9467 13.74 13.9467 12.6667C13.9467 12.1504 13.7416 11.6553 13.3765 11.2902C13.0114 10.9251 12.5163 10.72 12 10.72Z" fill="#AEAEAE"/>
</svg>
