<svg width="24" height="25" viewBox="0 0 24 25" fill="none" xmlns="http://www.w3.org/2000/svg">
<path d="M11.9998 8.74843C11.7661 8.74797 11.5397 8.83027 11.3598 8.98105L5.35979 14.0379C5.15557 14.2096 5.02715 14.4563 5.00277 14.7237C4.97839 14.9912 5.06005 15.2574 5.22979 15.464C5.39953 15.6705 5.64344 15.8004 5.90786 15.8251C6.17229 15.8497 6.43557 15.7671 6.63979 15.5955L11.9998 11.0645L17.3598 15.4336C17.4621 15.5177 17.5798 15.5804 17.7061 15.6182C17.8324 15.6561 17.9649 15.6683 18.096 15.6542C18.227 15.6401 18.354 15.6 18.4696 15.5361C18.5853 15.4722 18.6873 15.3858 18.7698 15.2819C18.8614 15.1779 18.9307 15.0559 18.9735 14.9236C19.0163 14.7912 19.0316 14.6513 19.0185 14.5127C19.0053 14.3741 18.964 14.2397 18.8971 14.118C18.8303 13.9963 18.7392 13.8898 18.6298 13.8053L12.6298 8.92037C12.4447 8.79342 12.2229 8.73289 11.9998 8.74843Z" fill="#B3B3B3"/>
</svg>
