<svg width="29" height="41" viewBox="0 0 29 41" fill="none" xmlns="http://www.w3.org/2000/svg">
<path d="M10.1348 18.6847C11.2943 19.8322 12.8647 20.475 14.5 20.475C15.3099 20.475 16.1122 20.3171 16.8611 20.0102C17.6099 19.7032 18.291 19.253 18.8652 18.6847C19.4394 18.1164 19.8955 17.4412 20.2068 16.6973C20.5182 15.9535 20.6786 15.1558 20.6786 14.35C20.6786 12.7222 20.0251 11.1631 18.8652 10.0153C17.7057 8.86781 16.1353 8.225 14.5 8.225C12.8647 8.225 11.2943 8.86781 10.1348 10.0153C8.97494 11.1631 8.32143 12.7222 8.32143 14.35C8.32143 15.9778 8.97494 17.5369 10.1348 18.6847ZM14.5 39.4886C14.1192 39.0487 13.6084 38.4479 13.0076 37.7153C11.6612 36.0735 9.86773 33.7754 8.07625 31.1476C6.28281 28.517 4.50399 25.5743 3.17663 22.6421C1.84324 19.6966 1 16.8362 1 14.35C1 10.8127 2.41976 7.41822 4.95037 4.91379C7.48133 2.40901 10.9162 1 14.5 1C18.0838 1 21.5187 2.40901 24.0496 4.91379C26.5802 7.41822 28 10.8127 28 14.35C28 16.8362 27.1568 19.6966 25.8234 22.6421C24.496 25.5743 22.7172 28.517 20.9237 31.1476C19.1323 33.7754 17.3388 36.0735 15.9924 37.7153C15.3916 38.4479 14.8808 39.0487 14.5 39.4886Z" fill="#0085FF" stroke="black" stroke-width="2"/>
</svg>
